<svg xmlns="http://www.w3.org/2000/svg" version="1.1" xmlns:xlink="http://www.w3.org/1999/xlink" width="512" height="512" x="0" y="0" viewBox="0 0 3873 3873" style="enable-background:new 0 0 512 512" xml:space="preserve" class=""><g><linearGradient id="a" x1="899.377" x2="3132.63" y1="2467.498" y2="234.245" gradientTransform="matrix(1 0 0 -1 0 3382.983)" gradientUnits="userSpaceOnUse"><stop stop-opacity="1" stop-color="#1f1630" offset="0"></stop><stop stop-opacity="1" stop-color="#836cc1" offset="1"></stop></linearGradient><path fill="url(#a)" fill-rule="evenodd" d="M3652.6 2424.6c-36.4-71.9-108.7-116.5-188.6-116.5-17.6 0-36.9 2.6-55.9 7.6-.4.1-.7.2-1.2.3l-896.5 266.5c-13.6-48.6-45.8-90.5-89.9-115.4-1.5-.8-3-1.6-4.5-2.2l-857.8-348.8c-201-82.3-422.3-114.7-640-93.5-.2 0-.5 0-.7.1L578 2061.6c-20-87.8-98.7-153.6-192.5-153.6H241.9c-22 0-39.8 17.8-39.8 39.8v1115.1c0 22 17.8 39.7 39.8 39.7h143.6c97.1 0 178-70.4 194.5-162.9l106.2-15.9c103-14.6 205.4-12.6 304.8 6.1 48.9 8.6 99.6 22.6 150.9 41.5l797.3 295.7c73.4 29.8 151.2 44.6 229 44.6 91.1 0 182.3-20.4 266-60.9l1121.2-542.1c51.2-24.4 89.6-67.5 108.1-121.4 18.5-53.7 14.7-111.5-10.9-162.7zM503.5 2905.1c0 65.1-52.9 118.1-118 118.1H281.6V1987.6h103.8c65.1 0 118.1 53 118.1 118.1zm3084.7-343.4c-11.5 33.5-35.3 60.3-67.3 75.5l-1121.5 542.2c-135.2 65.4-292.2 70.5-430.9 14-.3-.2-.7-.3-1.2-.5L1169.5 2897c-55.8-20.6-111.1-35.8-164.2-45.2-107.5-20.2-218.6-22.4-330.5-6.6l-91.7 13.7v-717.8l343.2-39.3c204.8-19.8 412.9 10.6 601.9 88l855.3 347.8c29.6 17.5 49.6 48.5 53.8 83.3.1.3.1.6.1 1 .3 2.7.4 6.7.3 10.9 0 12.1-2.1 24.5-6.4 37.4-19.9 56.9-80.3 87.2-137.8 69.1l-696.9-213.9c-21-6.5-43.2 5.4-49.6 26.3-6.5 21 5.3 43.2 26.3 49.7l696.6 213.8c19.2 6.1 38.7 9 57.8 9 78.6 0 151.3-49.2 178.9-128.2 3.6-10.7 6.2-21.2 8-31.6l914.3-271.8c12.2-3.2 24.4-4.9 35.1-4.9 49.8 0 94.9 27.9 117.5 72.7 15.9 31.7 18.2 67.7 6.7 101.3zm-2315.7-709.9h2114.2c41.5 0 75.2-33.8 75.2-75.3V648c0-41.5-33.8-75.3-75.2-75.3H1273.3c-41.6 0-75.3 33.8-75.3 75.3v1128.5c0 41.6 33.4 75.3 74.5 75.3zm5-1199.5h2104.9v1120H1277.5zm1982.6 316.4c-7.5-7.5-17.5-11.7-28.1-11.7-44.7 0-86.6-16.6-118.1-46.8-31-29.7-48.1-69.1-48.1-110.8 0-10.5-4.1-20.7-11.6-28.1-7.5-7.5-17.6-11.7-28.1-11.7H1632.4c-10.6 0-20.6 4.2-28.1 11.7s-11.7 17.6-11.7 28.1c0 42.4-17 82.2-47.8 112.2-31.3 30.5-73.1 46.6-117.4 45.4-10.4-.3-21.1 3.7-28.8 11.2s-12.1 17.8-12.1 28.5v430.1c0 10.7 4.4 21 12.1 28.5s18 11.6 28.8 11.2c44-1.3 85.6 15 117.1 45.7 30.9 30.1 48 69.8 48 111.9 0 10.5 4.2 20.7 11.7 28.1 7.5 7.5 17.5 11.6 28.1 11.6H3026c22 0 39.8-17.8 39.8-39.8 0-86.9 74.6-157.5 166.2-157.5 22 0 39.8-17.8 39.8-39.8V996.6c-.1-10.3-4.3-20.4-11.7-27.9zm-67.9 421.6c-103.2 16.3-185.1 94.8-202.5 194.2h-1321c-8.4-48.6-32-93.4-68.7-129.1-37.1-36.2-83.6-58.9-133.9-65.9v-355.1c50.5-7 97.1-29.6 134.1-65.6 36.6-35.6 60.2-80.6 68.6-129.4h1320.9c8.4 48.5 32.3 93.1 69.2 128.4 36.8 35.3 83.1 57.9 133.3 65.8zm-863-486.1c-169.9 0-308 138.2-308 308.1s138.2 308.1 308 308.1c169.9 0 308.1-138.2 308.1-308.1s-138.2-308.1-308.1-308.1zm0 536.6c-126 0-228.5-102.5-228.6-228.6 0-126 102.6-228.6 228.6-228.6 126.1 0 228.6 102.5 228.6 228.6-.1 126.1-102.6 228.6-228.6 228.6zm-125.4-299.6c-1.4-2.1-2.7-4.5-3.7-6.8-1-2.4-1.8-4.9-2.3-7.5s-.8-5.2-.8-7.8.2-5.2.8-7.7c.5-2.6 1.2-5 2.3-7.5 1-2.4 2.2-4.7 3.7-6.9 1.5-2.1 3.1-4.2 4.9-6 9.3-9.2 23-13.5 35.9-10.8 2.6.5 5 1.2 7.5 2.2 2.4 1 4.7 2.3 6.8 3.7 2.2 1.4 4.2 3.1 6.1 5 1.9 1.8 3.5 3.9 5 6 1.4 2.2 2.6 4.5 3.7 6.9 1 2.4 1.7 4.9 2.2 7.5.6 2.6.8 5.2.8 7.7 0 10.5-4.3 20.8-11.7 28.1-1.8 1.9-3.9 3.5-6.1 5-2.1 1.4-4.4 2.7-6.8 3.7s-4.9 1.8-7.5 2.3c-2.5.5-5.2.8-7.7.8-10.5 0-20.7-4.2-28.2-11.7-1.8-2-3.5-3.9-4.9-6.2zm256.7 155.6c.5 2.6.8 5.2.8 7.8 0 10.4-4.3 20.7-11.7 28.1-1.9 1.8-3.9 3.5-6.1 5-2.1 1.4-4.4 2.6-6.8 3.7-2.4 1-4.9 1.7-7.5 2.2-2.6.6-5.2.8-7.7.8-2.6 0-5.3-.3-7.8-.8-2.6-.5-5-1.2-7.4-2.2-2.3-1-4.7-2.3-6.8-3.7-2.2-1.5-4.2-3.2-6.1-5-1.8-1.9-3.4-3.9-4.9-6.1-1.4-2.1-2.7-4.4-3.7-6.8s-1.8-4.9-2.3-7.5-.8-5.2-.8-7.7c0-2.6.3-5.3.8-7.8.5-2.6 1.2-5 2.3-7.5 1-2.4 2.2-4.7 3.7-6.8 1.5-2.2 3.1-4.2 4.9-6.1 9.3-9.2 23-13.5 35.9-10.8 2.6.5 5 1.2 7.5 2.3 2.4 1 4.7 2.2 6.8 3.7 2.2 1.4 4.2 3.1 6.1 4.9 1.9 1.9 3.5 3.9 5 6.1 1.4 2.1 2.6 4.5 3.7 6.8.8 2.4 1.6 4.9 2.1 7.4zm-14.1-145.6-177.6 177.6c-7.7 7.8-17.9 11.7-28.1 11.7s-20.4-3.9-28.1-11.6c-15.5-15.5-15.5-40.7 0-56.2l177.6-177.6c15.5-15.5 40.7-15.5 56.2 0 15.6 15.4 15.6 40.6 0 56.1zm-700.4-69.4c-71.9 0-130.5 58.5-130.5 130.5s58.6 130.5 130.5 130.5c72 0 130.5-58.5 130.5-130.5s-58.5-130.5-130.5-130.5zm0 181.5c-28.1 0-50.9-22.9-50.9-51s22.9-51 51-51c28.2 0 51 22.9 51 51-.1 28.1-23 51-51.1 51zm1167.2-181.5c-72 0-130.5 58.5-130.5 130.5s58.6 130.5 130.6 130.5c71.9 0 130.5-58.6 130.5-130.5-.1-72-58.7-130.5-130.6-130.5zm0 181.5c-28.2 0-51-22.9-51-51s22.9-51 51-51 50.9 22.9 50.9 51-22.8 51-50.9 51z" clip-rule="evenodd" opacity="1" data-original="url(#a)" class=""></path></g></svg>