<svg xmlns="http://www.w3.org/2000/svg" version="1.1" xmlns:xlink="http://www.w3.org/1999/xlink" width="512" height="512" x="0" y="0" viewBox="0 0 128 128" style="enable-background:new 0 0 512 512" xml:space="preserve" class=""><g><linearGradient id="a" x1="35.975" x2="97.26" y1="15.46" y2="121.609" gradientUnits="userSpaceOnUse"><stop stop-opacity="1" stop-color="#836cc1" offset="0"></stop><stop stop-opacity="1" stop-color="#1f1630" offset="1"></stop></linearGradient><g fill="url(#a)"><path d="M64 112.887C37 112.887 15.112 91 15.112 64S37 15.112 64 15.112C91.001 15.112 112.888 37 112.888 64c0 1.975 1.603 3.577 3.577 3.577s3.576-1.603 3.576-3.577C120.041 33.05 94.95 7.958 64 7.958S7.959 33.05 7.959 64 33.05 120.042 64 120.042a3.578 3.578 0 0 0 0-7.155z" fill="" opacity="1"></path><path d="M64 112.887C37 112.887 15.112 91 15.112 64S37 15.112 64 15.112C91.001 15.112 112.888 37 112.888 64c0 1.975 1.603 3.577 3.577 3.577s3.576-1.603 3.576-3.577C120.041 33.05 94.95 7.958 64 7.958S7.959 33.05 7.959 64 33.05 120.042 64 120.042a3.578 3.578 0 0 0 0-7.155z" fill="" opacity="1"></path><path d="M60.423 25.844v39.347H40.151a3.578 3.578 0 0 0 0 7.156H64a3.579 3.579 0 0 0 3.577-3.579V25.844c0-1.976-1.603-3.578-3.577-3.578s-3.577 1.603-3.577 3.578z" fill="" opacity="1"></path><path d="M60.423 25.844v39.347H40.151a3.578 3.578 0 0 0 0 7.156H64a3.579 3.579 0 0 0 3.577-3.579V25.844c0-1.976-1.603-3.578-3.577-3.578s-3.577 1.603-3.577 3.578zM92.617 65.191c-15.147 0-27.425 12.278-27.425 27.425 0 15.148 12.277 27.426 27.425 27.426 15.146 0 27.424-12.277 27.424-27.426 0-15.147-12.277-27.425-27.424-27.425zm.332 39.639a3.578 3.578 0 0 1-5.012.698l-10.938-8.269a3.578 3.578 0 0 1 4.316-5.709l8.085 6.112 11.398-15.079a3.578 3.578 0 1 1 5.707 4.315z" fill="" opacity="1"></path><path d="M92.617 65.191c-15.147 0-27.425 12.278-27.425 27.425 0 15.148 12.277 27.426 27.425 27.426 15.146 0 27.424-12.277 27.424-27.426 0-15.147-12.277-27.425-27.424-27.425zm.332 39.639a3.578 3.578 0 0 1-5.012.698l-10.938-8.269a3.578 3.578 0 0 1 4.316-5.709l8.085 6.112 11.398-15.079a3.578 3.578 0 1 1 5.707 4.315z" fill="" opacity="1"></path></g></g></svg>