<svg xmlns="http://www.w3.org/2000/svg" version="1.1" xmlns:xlink="http://www.w3.org/1999/xlink" width="512" height="512" x="0" y="0" viewBox="0 0 512 512" style="enable-background:new 0 0 512 512" xml:space="preserve" class=""><g><linearGradient id="a" x1="393.459" x2="118.541" y1="122.978" y2="397.896" gradientUnits="userSpaceOnUse"><stop stop-opacity="1" stop-color="#1f1630" offset="0"></stop><stop stop-opacity="1" stop-color="#836cc1" offset="1"></stop></linearGradient><path fill="url(#a)" d="m374.198 254.472-21.583-5.082c-17.473-4.114-34.921-11.855-51.859-23.009l-7.008-4.615a6.997 6.997 0 0 0-3.85-1.154h-67.795a6.997 6.997 0 0 0-3.85 1.154l-7.008 4.614c-16.937 11.154-34.385 18.896-51.859 23.01l-21.583 5.082a7 7 0 0 0-5.396 6.813v100.163c0 62.004 57.004 118.845 112.116 137.978l9.183 3.188a7 7 0 0 0 4.59 0l9.183-3.188c55.11-19.133 112.115-75.975 112.115-137.978V261.285a7 7 0 0 0-5.396-6.813zm-8.605 106.976c0 55.032-53.312 107.604-102.706 124.751L256 488.59l-6.887-2.391c-49.395-17.147-102.707-69.719-102.707-124.751v-94.62l16.188-3.812c19.078-4.492 38.037-12.884 56.351-24.944l5.256-3.461H287.8l5.256 3.462c18.314 12.06 37.273 20.452 56.351 24.943l16.187 3.812v94.62zm-19.395-84.803c-20.68-4.869-41.15-13.913-60.842-26.88a7.004 7.004 0 0 0-3.85-1.153h-51.013a7.004 7.004 0 0 0-3.85 1.153c-19.692 12.967-40.162 22.011-60.842 26.88a7 7 0 0 0-5.396 6.813v77.99c0 22.616 10.824 47.042 30.477 68.779 17.534 19.394 40.432 34.974 62.822 42.747a7.006 7.006 0 0 0 4.592 0c22.39-7.773 45.287-23.354 62.821-42.747 19.653-21.737 30.477-46.164 30.477-68.779v-77.99a7 7 0 0 0-5.396-6.813zm-8.604 84.803c0 40.6-41.755 82.619-81.594 97.474-39.839-14.854-81.594-56.874-81.594-97.474v-72.535c19.813-5.315 39.346-14.146 58.168-26.302h46.852c18.822 12.155 38.355 20.986 58.168 26.302zm-105.559 21.299 72.93-59.221a7 7 0 0 1 8.826 10.867l-78.881 64.053a6.997 6.997 0 0 1-10.224-1.532l-27.875-41.516a7 7 0 0 1 11.623-7.805zm177.553-226.544H390.16c-4.942-22.918-15.706-44.216-31.366-61.897-15.689-17.716-35.573-31.032-57.758-38.733v-9.815C301.037 25.489 284.547 9 264.279 9h-16.561c-20.268 0-36.756 16.489-36.756 36.757v9.815c-22.185 7.702-42.068 21.019-57.757 38.733-15.661 17.683-26.424 38.98-31.366 61.897h-19.427a7 7 0 0 0-7 7v41.863a7 7 0 0 0 7 7h307.177a7 7 0 0 0 7-7v-41.863a7.001 7.001 0 0 0-7.001-6.999zm-198.626-85.7v44.098a7 7 0 1 0 14 0V60.815a8.587 8.587 0 0 0 0-.321V45.757C224.962 33.209 235.17 23 247.718 23h16.561c12.548 0 22.757 10.209 22.757 22.757v14.738a8.48 8.48 0 0 0 0 .319V114.6a7 7 0 1 0 14 0V70.503c37.098 14.62 65.351 46.97 74.768 85.7h-239.61c9.419-38.729 37.671-71.078 74.768-85.7zm191.626 127.563H109.412v-27.863h293.177v27.863z" opacity="1" data-original="url(#a)" class=""></path></g></svg>