<svg xmlns="http://www.w3.org/2000/svg" version="1.1" xmlns:xlink="http://www.w3.org/1999/xlink" width="512" height="512" x="0" y="0" viewBox="0 0 512 512" style="enable-background:new 0 0 512 512" xml:space="preserve" class=""><g><linearGradient id="a" x1="47.928" x2="434.039" y1="443.691" y2="57.58" gradientUnits="userSpaceOnUse"><stop stop-opacity="1" stop-color="#836cc1" offset="0"></stop><stop stop-opacity="1" stop-color="#1f1630" offset="1"></stop></linearGradient><path fill="url(#a)" fill-rule="evenodd" d="m498.874 163.516-19.984-7.692a130.48 130.48 0 0 0-12.649-30.515l8.697-19.583a8 8 0 0 0-1.655-8.904l-27.539-27.538a7.999 7.999 0 0 0-8.903-1.655l-19.589 8.7a130.569 130.569 0 0 0-30.505-12.647l-7.694-19.989a7.998 7.998 0 0 0-7.466-5.126h-38.945a8 8 0 0 0-7.466 5.126l-7.695 19.99a130.544 130.544 0 0 0-30.505 12.647l-19.589-8.7a7.997 7.997 0 0 0-8.904 1.655l-27.539 27.539a8 8 0 0 0-1.654 8.904l8.7 19.586a130.462 130.462 0 0 0-12.648 30.508l-19.987 7.694a8 8 0 0 0-5.126 7.466v38.945a8 8 0 0 0 5.126 7.466l19.983 7.692a130.544 130.544 0 0 0 12.65 30.514l-8.698 19.582a8 8 0 0 0 1.654 8.904l27.539 27.539a8 8 0 0 0 8.904 1.655l19.59-8.701a130.5 130.5 0 0 0 30.505 12.647l7.694 19.989a7.998 7.998 0 0 0 7.466 5.126h38.945a8 8 0 0 0 7.466-5.126l7.692-19.984a130.516 130.516 0 0 0 30.515-12.649l19.582 8.697a8 8 0 0 0 8.904-1.654l27.538-27.539a8 8 0 0 0 1.654-8.904l-8.7-19.59a130.516 130.516 0 0 0 12.646-30.504l19.99-7.694a8 8 0 0 0 5.126-7.466v-38.945a8 8 0 0 0-5.126-7.466zM488 204.434l-18.719 7.205a7.994 7.994 0 0 0-4.908 5.614 114.634 114.634 0 0 1-13.937 33.616 8.002 8.002 0 0 0-.499 7.441l8.147 18.346-19.77 19.771-18.339-8.145a7.999 7.999 0 0 0-7.442.499 114.622 114.622 0 0 1-33.624 13.939 8 8 0 0 0-5.614 4.909l-7.203 18.712h-27.959l-7.205-18.718a8 8 0 0 0-5.614-4.909 114.621 114.621 0 0 1-33.615-13.936 8.003 8.003 0 0 0-7.441-.5l-18.347 8.148-19.771-19.771 8.146-18.338a8.003 8.003 0 0 0-.5-7.443 114.642 114.642 0 0 1-13.939-33.625 7.997 7.997 0 0 0-4.908-5.613l-18.712-7.203v-27.96l18.716-7.205a7.998 7.998 0 0 0 4.908-5.614 114.59 114.59 0 0 1 13.938-33.617 8.003 8.003 0 0 0 .5-7.443l-8.147-18.343 19.771-19.771 18.346 8.147a8.002 8.002 0 0 0 7.441-.5 114.67 114.67 0 0 1 33.616-13.936 8 8 0 0 0 5.613-4.909l7.206-18.718h27.959l7.205 18.718a8 8 0 0 0 5.613 4.909 114.658 114.658 0 0 1 33.616 13.936 8.003 8.003 0 0 0 7.441.5l18.346-8.148 19.771 19.771-8.145 18.339a8.001 8.001 0 0 0 .5 7.442 114.586 114.586 0 0 1 13.938 33.624 7.996 7.996 0 0 0 4.908 5.614L488 176.474zm-135.887-96.339c-45.413 0-82.359 36.946-82.359 82.359s36.946 82.359 82.359 82.359c45.412 0 82.358-36.946 82.358-82.359s-36.946-82.359-82.358-82.359zm0 148.718c-36.591 0-66.359-29.769-66.359-66.359s29.769-66.359 66.359-66.359 66.358 29.769 66.358 66.359-29.768 66.359-66.358 66.359zM31.868 172.351l-4.991 11.238a8 8 0 0 0 1.654 8.904l17.653 17.653a8 8 0 0 0 8.904 1.655l11.243-4.994a86.436 86.436 0 0 0 17.541 7.272l4.416 11.472a8 8 0 0 0 7.466 5.126h24.966a8 8 0 0 0 7.466-5.126l4.414-11.467a86.445 86.445 0 0 0 17.548-7.275l11.237 4.991a7.998 7.998 0 0 0 8.904-1.654l17.653-17.654a8 8 0 0 0 1.654-8.904l-4.993-11.243a86.455 86.455 0 0 0 7.272-17.542l11.473-4.416a8 8 0 0 0 5.126-7.466v-24.965a8 8 0 0 0-5.126-7.466l-11.469-4.415a86.47 86.47 0 0 0-7.274-17.547l4.991-11.238a8 8 0 0 0-1.654-8.904L170.29 50.735a8.002 8.002 0 0 0-8.904-1.655l-11.243 4.993a86.47 86.47 0 0 0-17.541-7.272l-4.415-11.472a8 8 0 0 0-7.466-5.126H95.755a8 8 0 0 0-7.466 5.126l-4.416 11.472a86.497 86.497 0 0 0-17.541 7.273L55.089 49.08a8.002 8.002 0 0 0-8.904 1.655L28.531 68.389a8 8 0 0 0-1.654 8.904l4.993 11.24a86.503 86.503 0 0 0-7.274 17.543l-11.47 4.416A8.001 8.001 0 0 0 8 117.958v24.965a8 8 0 0 0 5.126 7.466l11.468 4.414a86.555 86.555 0 0 0 7.274 17.548zM24 123.451l10.157-3.91a7.997 7.997 0 0 0 4.908-5.613 70.587 70.587 0 0 1 8.587-20.709 8 8 0 0 0 .5-7.443l-4.423-9.957 9.885-9.885 9.959 4.423a8.005 8.005 0 0 0 7.441-.499 70.605 70.605 0 0 1 20.709-8.586 8 8 0 0 0 5.613-4.909l3.911-10.159h13.979l3.91 10.159a8 8 0 0 0 5.613 4.909 70.634 70.634 0 0 1 20.709 8.585 8.003 8.003 0 0 0 7.441.5l9.959-4.423 9.885 9.885-4.421 9.954a8.001 8.001 0 0 0 .5 7.442 70.578 70.578 0 0 1 8.586 20.713 8 8 0 0 0 4.909 5.615l10.156 3.909v13.98l-10.159 3.91a7.997 7.997 0 0 0-4.908 5.613 70.635 70.635 0 0 1-8.586 20.708 8.001 8.001 0 0 0-.5 7.442l4.423 9.958-9.885 9.886-9.954-4.421a7.996 7.996 0 0 0-7.442.5 70.572 70.572 0 0 1-20.713 8.587 8 8 0 0 0-5.614 4.909l-3.909 10.155h-13.979l-3.911-10.159a8.002 8.002 0 0 0-5.613-4.909 70.59 70.59 0 0 1-20.708-8.585 8.002 8.002 0 0 0-7.441-.5l-9.96 4.423-9.885-9.886 4.421-9.954a8.001 8.001 0 0 0-.5-7.442 70.643 70.643 0 0 1-8.587-20.714 7.996 7.996 0 0 0-4.908-5.614L24 137.431zm84.237 58.529c28.419 0 51.54-23.12 51.54-51.539S136.656 78.9 108.237 78.9s-51.54 23.121-51.54 51.541c0 28.419 23.121 51.539 51.54 51.539zm0-87.079c19.597 0 35.54 15.943 35.54 35.541 0 19.596-15.943 35.539-35.54 35.539s-35.54-15.943-35.54-35.539c0-19.598 15.944-35.541 35.54-35.541zm298.633 271.93-92.978 25.294c-4.093 1.113-8.095 1.672-12.088 1.672h-.025c1.88-1.937 3.57-4.182 5.038-6.724 8.387-14.524 3.473-33.349-11.186-42.856a7.986 7.986 0 0 0-.944-.525c-21.954-10.341-42.535-24.687-59.073-36.213-5.754-4.011-11.188-7.799-15.867-10.833-19.002-12.327-39.992-9.028-58.019-4.173l-68.521 18.45-2.816-10.881c-1.352-5.226-4.669-9.619-9.341-12.37-4.672-2.75-10.12-3.519-15.348-2.168l-25.988 6.725c-10.813 2.799-17.335 13.874-14.538 24.688L60.11 451.913c1.352 5.226 4.669 9.619 9.341 12.37 3.167 1.865 6.691 2.82 10.262 2.82 1.696 0 3.402-.216 5.085-.651l25.988-6.724c5.226-1.353 9.618-4.669 12.369-9.341s3.521-10.122 2.169-15.347l-3.45-13.332 14.92-3.998 95.394 55.076c10.368 5.987 21.417 9.012 32.634 9.012 6.188 0 12.429-.921 18.634-2.772l170.035-50.764c15.803-4.717 25.752-24.59 20.874-41.695-2.366-8.295-14.227-34.227-67.495-19.736zm-297.502 75.437c-.337.572-1.122 1.589-2.59 1.97l-25.989 6.725c-1.468.376-2.646-.129-3.22-.466-.572-.337-1.589-1.122-1.969-2.59l-34.933-135c-.578-2.235.822-4.612 3.057-5.19l25.988-6.725c.369-.096.72-.135 1.048-.135.975 0 1.744.349 2.173.601.572.337 1.589 1.122 1.969 2.589l34.933 135c.379 1.469-.13 2.648-.467 3.221zm339.546-29.339-170.036 50.764c-13.317 3.974-26.334 2.37-38.689-4.764l-98.265-56.733a8.001 8.001 0 0 0-6.07-.799l-17.988 4.82-20.65-79.805 68.673-18.49c15.357-4.135 31.458-6.737 45.151 2.147 4.455 2.889 9.539 6.433 15.426 10.536 16.9 11.78 37.9 26.417 60.867 37.309 7.32 5.012 9.748 14.025 5.629 21.16-5.418 9.383-14.212 8.385-20.75 5.811-11.167-5.598-21.548-11.817-32.531-18.401-5.219-3.128-10.615-6.363-16.192-9.583a8 8 0 1 0-8 13.856c5.464 3.154 10.803 6.354 15.966 9.45 11.347 6.801 22.064 13.226 33.887 19.134.042.021.086.035.129.055.055.027.107.058.163.084l9.567 4.307c14.451 6.46 28.484 7.696 42.891 3.778l92.979-25.294c26.399-7.18 44.31-3.935 47.908 8.685 2.468 8.658-2.61 19.748-10.065 21.973zM70.039 324.794a8.341 8.341 0 1 1-16.569-1.94 8.341 8.341 0 0 1 16.569 1.94z" clip-rule="evenodd" opacity="1" data-original="url(#a)" class=""></path></g></svg>