<svg xmlns="http://www.w3.org/2000/svg" version="1.1" xmlns:xlink="http://www.w3.org/1999/xlink" width="512" height="512" x="0" y="0" viewBox="0 0 500 500" style="enable-background:new 0 0 512 512" xml:space="preserve" class=""><g><linearGradient id="a" x1="250" x2="250" y1=".156" y2="499.844" gradientUnits="userSpaceOnUse"><stop stop-opacity="1" stop-color="#836cc1" offset="0"></stop><stop stop-opacity="1" stop-color="#836cc1" offset="0.069"></stop><stop stop-opacity="1" stop-color="#836cc1" offset="0.216"></stop><stop stop-opacity="1" stop-color="#836cc1" offset="0.366"></stop><stop stop-opacity="1" stop-color="#836cc1" offset="0.5023147793845293"></stop><stop stop-opacity="1" stop-color="#1f1630" offset="0.673"></stop><stop stop-opacity="1" stop-color="#201631" offset="0.831"></stop><stop stop-opacity="1" stop-color="#1f1630" offset="1"></stop></linearGradient><path fill="url(#a)" fill-rule="evenodd" d="M157.59 225.49c-13.19-13.19-19.78-30.47-19.78-47.76 0-17.28 6.59-34.57 19.78-47.76a69.55 69.55 0 0 1 4.72-4.29c13.39-11.11 29.95-16.18 46.23-15.39 16.07.77 31.85 7.24 44.05 19.18a67.745 67.745 0 0 1 42.58-15.21c17.31-.06 34.61 6.5 47.87 19.76 13.19 13.19 19.78 30.47 19.78 47.76 0 17.28-6.59 34.57-19.78 47.76l-85.88 85.88a6.808 6.808 0 0 1-9.63 0zm-6.16-47.76c0 13.8 5.26 27.6 15.79 38.13l85.12 85.12 81.07-81.07c10.53-10.53 15.79-24.33 15.79-38.13s-5.26-27.6-15.79-38.13c-10.62-10.62-24.44-15.87-38.24-15.83-13.79.05-27.59 5.41-38.2 16.02l-.01-.01c-.15.15-.31.29-.47.43a6.814 6.814 0 0 1-9.58-.9 52.292 52.292 0 0 0-3.45-3.77 53.843 53.843 0 0 0-35.56-15.74c-12.99-.63-26.21 3.42-36.92 12.31a53.34 53.34 0 0 0-3.76 3.44c-10.53 10.53-15.79 24.33-15.79 38.13zM244.91 6.97c0-3.76 3.05-6.81 6.81-6.81s6.81 3.05 6.81 6.81v39.35c0 3.76-3.05 6.81-6.81 6.81s-6.81-3.05-6.81-6.81zm244.58 254.35a6.78 6.78 0 1 1 0 13.56H446a6.78 6.78 0 1 1 0-13.56zm-22.14-130.56c3.23-1.89 7.39-.81 9.28 2.42 1.9 3.23.81 7.39-2.42 9.28l-32.99 19.35c-3.23 1.89-7.39.81-9.28-2.42s-.81-7.39 2.42-9.28zm-95.29-93.34c1.85-3.26 6-4.4 9.26-2.55s4.4 6 2.55 9.26l-18.43 32.55c-1.85 3.26-6 4.4-9.26 2.55s-4.4-6-2.55-9.26zM10.54 268.67c-3.76 0-6.81-3.05-6.81-6.81s3.05-6.81 6.81-6.81h41.45c3.76 0 6.81 3.05 6.81 6.81s-3.05 6.81-6.81 6.81zm19.5-129.33a6.776 6.776 0 0 1-2.42-9.28 6.776 6.776 0 0 1 9.28-2.42l34.88 20.46c3.23 1.9 4.32 6.05 2.42 9.28a6.776 6.776 0 0 1-9.28 2.42zm89.8-96.24c-1.85-3.26-.71-7.41 2.55-9.26s7.41-.71 9.26 2.55l16.82 29.72c1.85 3.26.71 7.41-2.55 9.26s-7.41.71-9.26-2.55zM67.2 383.19l23.08-10.47c6.85-2.78 14.21-.67 18.25 5.54l.34-.27c2.54-2 5.17-4.14 7.93-6.43 40.17-33.53 57.85-31.75 122.5-25.26l3.3.33c11.27 1.13 18.19 6.22 21.27 12.68 1.59 3.33 2.13 6.92 1.71 10.48l-.02.14 21.54-10.53c8.51-4.16 17.4-5.04 25.08-3.79 6.65 1.08 12.51 3.82 16.64 7.5l7.6-3.71c7.72-3.77 15.76-4.85 22.93-4.09 5.25.56 10.08 2.12 14.02 4.36 4.04 2.29 7.24 5.34 9.17 8.83 10.75-2.89 20.83-1.64 27.68 1.9 3.36 1.73 6.07 4.06 7.92 6.8 2.11 3.14 3.07 6.71 2.6 10.51-.71 5.74-4.75 11.68-13.24 16.73l-61.16 36.41c-3.11 1.85-23.29 9.31-43.63 16.14-15.67 5.26-31.68 10.26-40.32 12.18-.39.09-.78.14-1.17.15l-6.78.3c-7.11.31-15.64.65-32.89 1.36-31.51 1.29-69.13 2.81-74.52 3.03.11 2.22-.29 4.39-1.13 6.39-1.44 3.43-4.19 6.35-7.84 8.01l-20.11 9.13c-8.76 3.98-18.36 3.55-22.72-7.22l-34.76-85.09c-1.99-4.87-3.49-8.36-1.11-14.02 1.44-3.44 4.19-6.36 7.84-8.02zm46.86 7.98 28.46 69.67c1.33-.21 2.6-.34 3.8-.39 4.77-.19 42.85-1.73 74.68-3.04 16.35-.67 31.16-1.28 39.04-1.63 8.21-1.89 23.36-6.64 38.35-11.67 19.66-6.6 38.65-13.5 41.03-14.92l61.16-36.41c4.41-2.63 6.42-4.93 6.64-6.73.05-.44-.08-.88-.36-1.31-.55-.81-1.53-1.59-2.87-2.28-5.03-2.59-13.3-3.03-22.26.63-23.86 9.74-47.73 19.48-71.59 29.22-4.33 1.78-17.44 1.5-22.78 1.34l-.51-.01c-6.07-.18-12.11-.51-16.86-.9-5.18-.41-9.4-.93-11.36-1.45l-74.97-19.95v-.01a6.8 6.8 0 0 1-5.06-6.72c.09-3.75 3.2-6.71 6.94-6.62l48.09 1.14c8.32.2 14.16-3.01 16.9-7.09.85-1.26 1.37-2.59 1.52-3.87.13-1.1 0-2.14-.43-3.03-1.17-2.44-4.47-4.43-10.37-5.02l-3.3-.33c-60.19-6.04-76.66-7.7-112.45 22.17-2.95 2.47-5.69 4.69-8.25 6.7-1.06.88-2.13 1.71-3.19 2.51zm-20.02-5.23-21.25 9.65c-1.09.49-1.08 1.31-.72 2.19l35.7 87.42c.7 1.36.84 1.65 2.06 1.09l18.91-8.58c6.15-2.79 5.06-1.51 3.22-6.86-11.3-27.68-22.61-55.35-33.91-83.03-1.2-2.84-2.13-2.73-4.01-1.88zm152.94 8.21 8.85 2.36c2.08-.45 4.08-.96 5.84-1.45 2.71-.76 4.7-1.43 5.27-1.71l47.52-23.21c-1.34-.48-2.82-.86-4.41-1.11-5.16-.84-11.17-.22-16.99 2.62zm58.05 5.57 64.33-26.26c-.71-.7-1.63-1.37-2.7-1.98-2.37-1.35-5.38-2.3-8.76-2.66-4.81-.51-10.25.23-15.53 2.81l-58.04 28.35c5.06.2 14.24.72 19.44-.01.42-.04.87-.1 1.26-.25z" clip-rule="evenodd" opacity="1" data-original="url(#a)"></path></g></svg>